<svg xmlns="http://www.w3.org/2000/svg" xmlns:xlink="http://www.w3.org/1999/xlink" width="1920" zoomAndPan="magnify" viewBox="0 0 1440 809.999993" height="1080" preserveAspectRatio="xMidYMid meet" version="1.0"><defs><g/><clipPath id="7a9b68bf8e"><path d="M 2.578125 25 L 18 25 L 18 55.792969 L 2.578125 55.792969 Z M 2.578125 25 " clip-rule="nonzero"/></clipPath><clipPath id="8ac9833a12"><path d="M 18 25 L 33.371094 25 L 33.371094 55.792969 L 18 55.792969 Z M 18 25 " clip-rule="nonzero"/></clipPath><clipPath id="b1dd864403"><rect x="0" width="328" y="0" height="81"/></clipPath></defs><g transform="matrix(1, 0, 0, 1, 50, 49)"><g clip-path="url(#b1dd864403)"><path fill="#e44d26" d="M 10.148438 50.210938 C 10.058594 50.464844 10.183594 50.75 10.433594 50.84375 C 10.683594 50.933594 10.964844 50.800781 11.058594 50.550781 C 11.554688 49.238281 13.027344 48.566406 14.347656 49.054688 C 14.601562 49.148438 14.878906 49.015625 14.976562 48.761719 C 15.070312 48.511719 14.949219 48.230469 14.691406 48.136719 C 12.867188 47.460938 10.832031 48.390625 10.148438 50.210938 Z M 10.148438 50.210938 " fill-opacity="1" fill-rule="nonzero"/><g clip-path="url(#7a9b68bf8e)"><path fill="#e44d26" d="M 16.429688 25.453125 C 15.761719 25.015625 14.917969 24.988281 13.933594 25.359375 C 13.855469 25.382812 12.222656 25.96875 11.164062 26.96875 C 11.09375 26.96875 11.03125 26.957031 10.964844 26.957031 C 9.019531 26.957031 7.4375 28.539062 7.4375 30.488281 C 7.4375 30.953125 7.53125 31.402344 7.707031 31.824219 C 5.984375 32.300781 4.71875 33.855469 4.71875 35.722656 C 4.71875 36.078125 4.78125 36.425781 4.867188 36.765625 C 3.636719 37.488281 2.855469 38.816406 2.855469 40.261719 C 2.855469 41.304688 3.257812 42.246094 3.914062 42.964844 C 3.675781 43.492188 3.539062 44.0625 3.539062 44.648438 C 3.539062 46.285156 4.53125 47.738281 5.996094 48.375 C 5.851562 48.757812 5.773438 49.179688 5.773438 49.597656 C 5.773438 51.546875 7.355469 53.128906 9.304688 53.128906 C 9.394531 53.128906 9.488281 53.105469 9.582031 53.101562 C 10.117188 54.558594 11.695312 55.585938 13.53125 55.585938 C 15.816406 55.585938 17.679688 54 17.679688 52.054688 L 17.679688 48.605469 C 17.679688 48.605469 17.679688 48.605469 17.679688 48.597656 L 17.679688 35.542969 C 17.679688 35.542969 17.679688 35.542969 17.679688 35.539062 L 17.679688 35.535156 L 17.675781 27.90625 C 17.675781 27.835938 17.570312 26.195312 16.429688 25.453125 Z M 16.703125 33.117188 C 16.0625 32.441406 15.15625 32.011719 14.144531 32.011719 C 13.875 32.011719 13.660156 32.226562 13.660156 32.496094 C 13.660156 32.761719 13.875 32.984375 14.144531 32.984375 C 15.558594 32.984375 16.703125 34.132812 16.703125 35.542969 L 16.703125 46.183594 C 16.0625 45.507812 15.15625 45.074219 14.144531 45.074219 C 13.875 45.070312 13.660156 45.289062 13.660156 45.554688 C 13.660156 45.828125 13.875 46.042969 14.144531 46.042969 C 15.558594 46.042969 16.703125 47.195312 16.703125 48.597656 L 16.703125 52.054688 C 16.703125 53.460938 15.285156 54.613281 13.53125 54.613281 C 11.980469 54.613281 10.660156 53.714844 10.40625 52.484375 C 10.347656 52.21875 10.085938 52.054688 9.824219 52.101562 C 9.824219 52.101562 9.820312 52.101562 9.816406 52.101562 C 9.648438 52.140625 9.476562 52.15625 9.304688 52.15625 C 7.890625 52.15625 6.742188 51.007812 6.742188 49.597656 C 6.742188 49.152344 6.863281 48.71875 7.082031 48.332031 C 7.09375 48.3125 7.097656 48.285156 7.105469 48.257812 C 7.109375 48.246094 7.121094 48.238281 7.132812 48.222656 C 7.132812 48.210938 7.132812 48.191406 7.132812 48.167969 C 7.136719 48.148438 7.136719 48.128906 7.136719 48.101562 C 7.136719 48.058594 7.136719 48.023438 7.132812 47.988281 C 7.121094 47.964844 7.113281 47.945312 7.105469 47.925781 C 7.089844 47.886719 7.078125 47.859375 7.054688 47.828125 C 7.042969 47.804688 7.023438 47.789062 7.007812 47.765625 C 6.980469 47.738281 6.953125 47.71875 6.925781 47.691406 C 6.914062 47.683594 6.910156 47.679688 6.898438 47.671875 C 6.878906 47.65625 6.855469 47.65625 6.832031 47.648438 C 6.816406 47.640625 6.804688 47.632812 6.789062 47.628906 C 5.449219 47.257812 4.515625 46.035156 4.515625 44.648438 C 4.515625 44.308594 4.589844 43.972656 4.699219 43.65625 C 5.339844 44.070312 6.09375 44.324219 6.914062 44.324219 C 7.179688 44.324219 7.402344 44.105469 7.402344 43.835938 C 7.402344 43.5625 7.179688 43.339844 6.914062 43.339844 C 5.207031 43.339844 3.832031 41.960938 3.832031 40.257812 C 3.832031 39.0625 4.53125 37.96875 5.613281 37.460938 L 5.617188 37.460938 C 5.625 37.457031 5.632812 37.453125 5.636719 37.449219 C 6.039062 37.269531 6.46875 37.175781 6.914062 37.175781 C 7.179688 37.175781 7.402344 36.957031 7.402344 36.6875 C 7.402344 36.417969 7.179688 36.207031 6.914062 36.207031 C 6.519531 36.207031 6.144531 36.277344 5.773438 36.386719 C 5.722656 36.171875 5.691406 35.949219 5.691406 35.722656 C 5.691406 34.023438 7.078125 32.640625 8.777344 32.640625 C 9.953125 32.640625 11.003906 33.292969 11.535156 34.347656 C 11.65625 34.585938 11.945312 34.679688 12.1875 34.5625 C 12.425781 34.441406 12.527344 34.152344 12.402344 33.910156 C 11.710938 32.523438 10.324219 31.664062 8.777344 31.664062 C 8.757812 31.664062 8.746094 31.667969 8.722656 31.667969 C 8.53125 31.304688 8.410156 30.90625 8.410156 30.484375 C 8.410156 29.074219 9.554688 27.929688 10.96875 27.929688 C 11.894531 27.929688 12.75 28.433594 13.203125 29.246094 C 13.410156 29.625 13.523438 30.054688 13.523438 30.484375 C 13.523438 30.75 13.742188 30.972656 14.007812 30.972656 C 14.277344 30.972656 14.5 30.75 14.5 30.484375 C 14.5 29.886719 14.347656 29.292969 14.058594 28.773438 C 13.664062 28.078125 13.070312 27.554688 12.363281 27.246094 C 13.230469 26.644531 14.242188 26.285156 14.261719 26.273438 C 14.953125 26.015625 15.507812 26.011719 15.898438 26.269531 C 16.613281 26.734375 16.703125 27.933594 16.703125 27.933594 Z M 16.703125 33.117188 " fill-opacity="1" fill-rule="nonzero"/></g><path fill="#e44d26" d="M 11.441406 37.871094 C 11.394531 37.613281 11.136719 37.4375 10.871094 37.488281 C 10.605469 37.539062 10.441406 37.796875 10.492188 38.058594 C 10.675781 39.039062 11.191406 39.894531 11.929688 40.542969 C 11.914062 40.605469 11.902344 40.667969 11.90625 40.730469 C 11.988281 42.140625 10.914062 43.359375 9.507812 43.441406 C 9.234375 43.457031 9.035156 43.6875 9.046875 43.953125 C 9.066406 44.214844 9.28125 44.414062 9.535156 44.414062 C 9.542969 44.414062 9.554688 44.414062 9.570312 44.414062 C 11.335938 44.308594 12.710938 42.90625 12.855469 41.183594 C 13.476562 41.496094 14.152344 41.660156 14.839844 41.660156 C 15.125 41.660156 15.40625 41.636719 15.683594 41.582031 C 15.941406 41.535156 16.117188 41.277344 16.070312 41.011719 C 16.023438 40.753906 15.753906 40.574219 15.5 40.625 C 14.585938 40.804688 13.664062 40.613281 12.90625 40.089844 C 12.132812 39.570312 11.617188 38.78125 11.441406 37.871094 Z M 11.441406 37.871094 " fill-opacity="1" fill-rule="nonzero"/><path fill="#e44d26" d="M 21.492188 48.136719 C 21.242188 48.230469 21.117188 48.511719 21.207031 48.765625 C 21.296875 49.019531 21.582031 49.152344 21.835938 49.058594 C 23.15625 48.566406 24.632812 49.238281 25.125 50.554688 C 25.21875 50.800781 25.496094 50.933594 25.75 50.84375 C 26.003906 50.75 26.128906 50.464844 26.03125 50.207031 C 25.359375 48.390625 23.316406 47.460938 21.492188 48.136719 Z M 21.492188 48.136719 " fill-opacity="1" fill-rule="nonzero"/><g clip-path="url(#8ac9833a12)"><path fill="#e44d26" d="M 33.328125 40.261719 C 33.328125 38.816406 32.550781 37.488281 31.316406 36.765625 C 31.398438 36.425781 31.464844 36.078125 31.464844 35.722656 C 31.464844 33.859375 30.195312 32.300781 28.480469 31.824219 C 28.652344 31.402344 28.746094 30.953125 28.746094 30.488281 C 28.746094 28.542969 27.164062 26.957031 25.21875 26.957031 C 25.152344 26.957031 25.089844 26.96875 25.019531 26.96875 C 23.960938 25.96875 22.324219 25.382812 22.25 25.359375 C 21.265625 24.988281 20.421875 25.015625 19.75 25.453125 C 18.617188 26.195312 18.511719 27.835938 18.511719 27.90625 L 18.507812 35.535156 L 18.507812 35.539062 C 18.507812 35.539062 18.507812 35.542969 18.507812 35.542969 L 18.507812 48.597656 C 18.507812 48.605469 18.507812 48.605469 18.507812 48.605469 L 18.507812 52.054688 C 18.507812 54 20.367188 55.585938 22.652344 55.585938 C 24.492188 55.585938 26.070312 54.558594 26.597656 53.101562 C 26.695312 53.105469 26.789062 53.128906 26.878906 53.128906 C 28.824219 53.128906 30.410156 51.546875 30.410156 49.597656 C 30.410156 49.179688 30.332031 48.757812 30.1875 48.375 C 31.660156 47.738281 32.644531 46.28125 32.644531 44.648438 C 32.644531 44.0625 32.515625 43.492188 32.273438 42.964844 C 32.925781 42.246094 33.328125 41.304688 33.328125 40.261719 Z M 29.394531 47.628906 C 29.378906 47.632812 29.367188 47.640625 29.351562 47.648438 C 29.332031 47.65625 29.304688 47.65625 29.285156 47.671875 C 29.273438 47.679688 29.269531 47.683594 29.253906 47.691406 C 29.226562 47.71875 29.203125 47.738281 29.179688 47.765625 C 29.160156 47.789062 29.140625 47.804688 29.128906 47.824219 C 29.105469 47.859375 29.09375 47.886719 29.078125 47.925781 C 29.070312 47.945312 29.0625 47.964844 29.054688 47.992188 C 29.046875 48.027344 29.046875 48.0625 29.046875 48.105469 C 29.046875 48.132812 29.046875 48.152344 29.054688 48.171875 C 29.054688 48.191406 29.046875 48.214844 29.054688 48.226562 C 29.0625 48.242188 29.074219 48.246094 29.078125 48.261719 C 29.089844 48.285156 29.089844 48.3125 29.105469 48.332031 C 29.320312 48.71875 29.441406 49.152344 29.441406 49.597656 C 29.441406 51.007812 28.285156 52.15625 26.878906 52.15625 C 26.703125 52.15625 26.535156 52.140625 26.367188 52.101562 L 26.359375 52.101562 C 26.101562 52.054688 25.839844 52.21875 25.78125 52.480469 C 25.523438 53.714844 24.207031 54.613281 22.652344 54.613281 C 20.898438 54.613281 19.480469 53.460938 19.480469 52.054688 L 19.480469 48.597656 C 19.480469 47.195312 20.628906 46.042969 22.035156 46.042969 C 22.304688 46.042969 22.527344 45.828125 22.527344 45.554688 C 22.527344 45.289062 22.308594 45.066406 22.035156 45.066406 C 21.027344 45.066406 20.121094 45.5 19.480469 46.179688 L 19.480469 35.539062 C 19.480469 34.128906 20.628906 32.980469 22.035156 32.980469 C 22.304688 32.980469 22.527344 32.761719 22.527344 32.496094 C 22.527344 32.226562 22.308594 32.003906 22.035156 32.003906 C 21.027344 32.003906 20.121094 32.433594 19.480469 33.113281 L 19.480469 27.933594 C 19.480469 27.933594 19.5625 26.734375 20.289062 26.269531 C 20.675781 26.011719 21.230469 26.015625 21.925781 26.273438 C 21.945312 26.285156 22.957031 26.644531 23.824219 27.246094 C 23.117188 27.554688 22.515625 28.078125 22.128906 28.773438 C 21.84375 29.296875 21.6875 29.890625 21.6875 30.484375 C 21.6875 30.75 21.902344 30.972656 22.175781 30.972656 C 22.445312 30.972656 22.664062 30.75 22.664062 30.484375 C 22.664062 30.054688 22.773438 29.625 22.984375 29.246094 C 23.429688 28.4375 24.285156 27.933594 25.21875 27.933594 C 26.625 27.933594 27.773438 29.078125 27.773438 30.488281 C 27.773438 30.910156 27.652344 31.308594 27.460938 31.671875 C 27.441406 31.671875 27.425781 31.667969 27.40625 31.667969 C 25.859375 31.667969 24.472656 32.523438 23.777344 33.914062 C 23.660156 34.152344 23.753906 34.441406 23.996094 34.5625 C 24.234375 34.679688 24.527344 34.585938 24.648438 34.347656 C 25.171875 33.292969 26.230469 32.640625 27.40625 32.640625 C 29.105469 32.640625 30.492188 34.023438 30.492188 35.722656 C 30.492188 35.949219 30.457031 36.171875 30.410156 36.386719 C 30.046875 36.277344 29.671875 36.207031 29.269531 36.207031 C 29.003906 36.207031 28.777344 36.421875 28.777344 36.691406 C 28.777344 36.960938 29.003906 37.179688 29.269531 37.179688 C 29.714844 37.179688 30.140625 37.269531 30.539062 37.453125 C 30.550781 37.457031 30.558594 37.460938 30.566406 37.464844 L 30.570312 37.464844 C 31.65625 37.96875 32.351562 39.066406 32.351562 40.261719 C 32.351562 41.964844 30.96875 43.34375 29.269531 43.34375 C 29.003906 43.34375 28.777344 43.5625 28.777344 43.839844 C 28.777344 44.105469 29 44.328125 29.269531 44.328125 C 30.085938 44.328125 30.84375 44.074219 31.476562 43.660156 C 31.59375 43.96875 31.664062 44.308594 31.664062 44.648438 C 31.664062 46.035156 30.734375 47.257812 29.394531 47.628906 Z M 29.394531 47.628906 " fill-opacity="1" fill-rule="nonzero"/></g><path fill="#e44d26" d="M 26.679688 43.441406 C 25.273438 43.359375 24.199219 42.140625 24.277344 40.730469 C 24.285156 40.667969 24.273438 40.605469 24.253906 40.542969 C 24.992188 39.898438 25.507812 39.042969 25.695312 38.058594 C 25.75 37.796875 25.578125 37.539062 25.3125 37.488281 C 25.042969 37.4375 24.789062 37.613281 24.742188 37.871094 C 24.5625 38.78125 24.042969 39.570312 23.28125 40.089844 C 22.515625 40.613281 21.59375 40.804688 20.6875 40.625 C 20.429688 40.574219 20.160156 40.753906 20.113281 41.011719 C 20.066406 41.277344 20.238281 41.535156 20.503906 41.585938 C 20.785156 41.636719 21.066406 41.664062 21.34375 41.664062 C 22.03125 41.664062 22.710938 41.5 23.328125 41.1875 C 23.476562 42.90625 24.847656 44.3125 26.621094 44.417969 C 26.632812 44.417969 26.640625 44.417969 26.648438 44.417969 C 26.90625 44.417969 27.121094 44.21875 27.136719 43.957031 C 27.148438 43.6875 26.949219 43.457031 26.679688 43.441406 Z M 26.679688 43.441406 " fill-opacity="1" fill-rule="nonzero"/><g fill="#000000" fill-opacity="1"><g transform="translate(43.725233, 59.186622)"><g><path d="M 4.640625 0 L 4.640625 -38.609375 L 12.078125 -38.609375 L 29.125 -15.109375 L 29.125 -38.609375 L 37.84375 -38.609375 L 37.84375 0 L 30.390625 0 L 13.34375 -23.65625 L 13.34375 0 Z M 4.640625 0 "/></g></g></g><g fill="#000000" fill-opacity="1"><g transform="translate(83.438669, 59.186622)"><g><path d="M 17.875 0.765625 C 14.78125 0.765625 12.046875 0.125 9.671875 -1.15625 C 7.304688 -2.445312 5.460938 -4.238281 4.140625 -6.53125 C 2.816406 -8.832031 2.15625 -11.488281 2.15625 -14.5 C 2.15625 -17.519531 2.820312 -20.171875 4.15625 -22.453125 C 5.5 -24.734375 7.359375 -26.515625 9.734375 -27.796875 C 12.109375 -29.085938 14.859375 -29.734375 17.984375 -29.734375 C 21.285156 -29.734375 24.140625 -28.992188 26.546875 -27.515625 C 28.960938 -26.046875 30.800781 -23.988281 32.0625 -21.34375 C 33.332031 -18.695312 33.878906 -15.609375 33.703125 -12.078125 L 10.484375 -12.078125 C 10.890625 -10.085938 11.769531 -8.566406 13.125 -7.515625 C 14.488281 -6.472656 16.125 -5.953125 18.03125 -5.953125 C 19.425781 -5.953125 20.703125 -6.21875 21.859375 -6.75 C 23.023438 -7.289062 23.957031 -8.035156 24.65625 -8.984375 L 33.15625 -8.984375 C 31.90625 -5.929688 29.9375 -3.539062 27.25 -1.8125 C 24.5625 -0.09375 21.4375 0.765625 17.875 0.765625 Z M 10.53125 -17.375 L 25.59375 -17.375 C 25.113281 -19.132812 24.21875 -20.519531 22.90625 -21.53125 C 21.601562 -22.550781 19.976562 -23.0625 18.03125 -23.0625 C 16.195312 -23.0625 14.609375 -22.550781 13.265625 -21.53125 C 11.921875 -20.519531 11.007812 -19.132812 10.53125 -17.375 Z M 10.53125 -17.375 "/></g></g></g><g fill="#000000" fill-opacity="1"><g transform="translate(116.478041, 59.186622)"><g><path d="M 15.71875 0.765625 C 11.96875 0.765625 9.015625 -0.414062 6.859375 -2.78125 C 4.710938 -5.15625 3.640625 -8.347656 3.640625 -12.359375 L 3.640625 -28.953125 L 12.03125 -28.953125 L 12.03125 -13.1875 C 12.03125 -11.050781 12.535156 -9.394531 13.546875 -8.21875 C 14.554688 -7.039062 15.941406 -6.453125 17.703125 -6.453125 C 19.617188 -6.453125 21.144531 -7.113281 22.28125 -8.4375 C 23.425781 -9.757812 24 -11.5625 24 -13.84375 L 24 -28.953125 L 32.375 -28.953125 L 32.375 0 L 26.140625 0 L 25.265625 -3.25 C 24.117188 -1.894531 22.71875 -0.882812 21.0625 -0.21875 C 19.414062 0.4375 17.632812 0.765625 15.71875 0.765625 Z M 15.71875 0.765625 "/></g></g></g><g fill="#000000" fill-opacity="1"><g transform="translate(150.289626, 59.186622)"><g><path d="M 4.1875 0 L 4.1875 -28.953125 L 10.421875 -28.953125 L 11.53125 -25.09375 C 12.488281 -26.457031 13.664062 -27.441406 15.0625 -28.046875 C 16.457031 -28.648438 18.222656 -28.953125 20.359375 -28.953125 L 23.5 -28.953125 L 23.5 -21.34375 L 20.296875 -21.34375 C 17.910156 -21.34375 16.023438 -20.695312 14.640625 -19.40625 C 13.265625 -18.125 12.578125 -15.921875 12.578125 -12.796875 L 12.578125 0 Z M 4.1875 0 "/></g></g></g><g fill="#000000" fill-opacity="1"><g transform="translate(172.904221, 59.186622)"><g><path d="M 18.421875 0.765625 C 15.222656 0.765625 12.398438 0.125 9.953125 -1.15625 C 7.503906 -2.445312 5.59375 -4.238281 4.21875 -6.53125 C 2.84375 -8.832031 2.15625 -11.488281 2.15625 -14.5 C 2.15625 -17.519531 2.84375 -20.171875 4.21875 -22.453125 C 5.59375 -24.734375 7.503906 -26.515625 9.953125 -27.796875 C 12.398438 -29.085938 15.222656 -29.734375 18.421875 -29.734375 C 21.617188 -29.734375 24.441406 -29.085938 26.890625 -27.796875 C 29.335938 -26.515625 31.238281 -24.734375 32.59375 -22.453125 C 33.957031 -20.171875 34.640625 -17.519531 34.640625 -14.5 C 34.640625 -11.488281 33.957031 -8.832031 32.59375 -6.53125 C 31.238281 -4.238281 29.335938 -2.445312 26.890625 -1.15625 C 24.441406 0.125 21.617188 0.765625 18.421875 0.765625 Z M 10.421875 -14.5 C 10.421875 -12.144531 11.164062 -10.210938 12.65625 -8.703125 C 14.144531 -7.203125 16.066406 -6.453125 18.421875 -6.453125 C 20.773438 -6.453125 22.6875 -7.203125 24.15625 -8.703125 C 25.625 -10.210938 26.359375 -12.144531 26.359375 -14.5 C 26.359375 -16.894531 25.625 -18.835938 24.15625 -20.328125 C 22.6875 -21.816406 20.773438 -22.5625 18.421875 -22.5625 C 16.066406 -22.5625 14.144531 -21.816406 12.65625 -20.328125 C 11.164062 -18.835938 10.421875 -16.894531 10.421875 -14.5 Z M 10.421875 -14.5 "/></g></g></g><g fill="#000000" fill-opacity="1"><g transform="translate(206.936433, 59.186622)"><g><path d="M 7.0625 -31.28125 C 7.0625 -34.695312 7.988281 -37.3125 9.84375 -39.125 C 11.695312 -40.945312 14.351562 -41.859375 17.8125 -41.859375 L 24.21875 -41.859375 L 24.21875 -35.25 L 19.640625 -35.25 C 18.128906 -35.25 17.023438 -34.890625 16.328125 -34.171875 C 15.628906 -33.453125 15.28125 -32.335938 15.28125 -30.828125 L 15.28125 -28.953125 L 23.9375 -28.953125 L 23.9375 -22.125 L 15.4375 -22.125 L 15.4375 0 L 7.0625 0 L 7.0625 -22.125 L 1.265625 -22.125 L 1.265625 -28.953125 L 7.0625 -28.953125 Z M 7.0625 -31.28125 "/></g></g></g><g fill="#000000" fill-opacity="1"><g transform="translate(228.944299, 59.186622)"><g><path d="M 4.1875 0 L 4.1875 -40.8125 L 12.578125 -40.8125 L 12.578125 0 Z M 4.1875 0 "/></g></g></g><g fill="#000000" fill-opacity="1"><g transform="translate(242.954322, 59.186622)"><g><path d="M 18.421875 0.765625 C 15.222656 0.765625 12.398438 0.125 9.953125 -1.15625 C 7.503906 -2.445312 5.59375 -4.238281 4.21875 -6.53125 C 2.84375 -8.832031 2.15625 -11.488281 2.15625 -14.5 C 2.15625 -17.519531 2.84375 -20.171875 4.21875 -22.453125 C 5.59375 -24.734375 7.503906 -26.515625 9.953125 -27.796875 C 12.398438 -29.085938 15.222656 -29.734375 18.421875 -29.734375 C 21.617188 -29.734375 24.441406 -29.085938 26.890625 -27.796875 C 29.335938 -26.515625 31.238281 -24.734375 32.59375 -22.453125 C 33.957031 -20.171875 34.640625 -17.519531 34.640625 -14.5 C 34.640625 -11.488281 33.957031 -8.832031 32.59375 -6.53125 C 31.238281 -4.238281 29.335938 -2.445312 26.890625 -1.15625 C 24.441406 0.125 21.617188 0.765625 18.421875 0.765625 Z M 10.421875 -14.5 C 10.421875 -12.144531 11.164062 -10.210938 12.65625 -8.703125 C 14.144531 -7.203125 16.066406 -6.453125 18.421875 -6.453125 C 20.773438 -6.453125 22.6875 -7.203125 24.15625 -8.703125 C 25.625 -10.210938 26.359375 -12.144531 26.359375 -14.5 C 26.359375 -16.894531 25.625 -18.835938 24.15625 -20.328125 C 22.6875 -21.816406 20.773438 -22.5625 18.421875 -22.5625 C 16.066406 -22.5625 14.144531 -21.816406 12.65625 -20.328125 C 11.164062 -18.835938 10.421875 -16.894531 10.421875 -14.5 Z M 10.421875 -14.5 "/></g></g></g><g fill="#000000" fill-opacity="1"><g transform="translate(276.986534, 59.186622)"><g><path d="M 11.203125 0 L 0.5 -28.953125 L 9.375 -28.953125 L 12.734375 -19.359375 L 15.609375 -11.25 L 18.59375 -19.359375 L 22.171875 -28.953125 L 28.953125 -28.953125 L 32.546875 -19.359375 L 35.515625 -11.203125 L 38.390625 -19.359375 L 41.8125 -28.953125 L 50.640625 -28.953125 L 39.9375 0 L 32.15625 0 L 25.59375 -17.65625 L 18.96875 0 Z M 11.203125 0 "/></g></g></g></g></g></svg>