<svg xmlns="http://www.w3.org/2000/svg" xmlns:xlink="http://www.w3.org/1999/xlink" width="1920" zoomAndPan="magnify" viewBox="0 0 1440 809.999993" height="1080" preserveAspectRatio="xMidYMid meet" version="1.0"><defs><g/><clipPath id="73a2823fe1"><path d="M 1 106.496094 L 66 106.496094 L 66 239 L 1 239 Z M 1 106.496094 " clip-rule="nonzero"/></clipPath><clipPath id="df6a2b85f9"><path d="M 68 106.496094 L 132.578125 106.496094 L 132.578125 239 L 68 239 Z M 68 106.496094 " clip-rule="nonzero"/></clipPath><clipPath id="eaf5bae877"><rect x="0" width="1401" y="0" height="345"/></clipPath></defs><g transform="matrix(1, 0, 0, 1, 0, 207)"><g clip-path="url(#eaf5bae877)"><path fill="#e44d26" d="M 32.601562 215.050781 C 32.207031 216.136719 32.75 217.367188 33.820312 217.765625 C 34.90625 218.160156 36.109375 217.589844 36.523438 216.503906 C 38.648438 210.851562 44.992188 207.957031 50.671875 210.074219 C 51.773438 210.46875 52.960938 209.898438 53.375 208.808594 C 53.785156 207.722656 53.257812 206.519531 52.15625 206.109375 C 44.300781 203.203125 35.539062 207.210938 32.601562 215.050781 Z M 32.601562 215.050781 " fill-opacity="1" fill-rule="nonzero"/><g clip-path="url(#73a2823fe1)"><path fill="#e44d26" d="M 59.640625 108.464844 C 56.765625 106.585938 53.125 106.46875 48.894531 108.066406 C 48.558594 108.171875 41.527344 110.679688 36.960938 114.996094 C 36.667969 114.980469 36.40625 114.9375 36.109375 114.9375 C 27.730469 114.9375 20.933594 121.75 20.933594 130.144531 C 20.933594 132.140625 21.328125 134.078125 22.09375 135.898438 C 14.679688 137.9375 9.21875 144.632812 9.21875 152.675781 C 9.21875 154.203125 9.496094 155.699219 9.863281 157.167969 C 4.566406 160.28125 1.203125 165.992188 1.203125 172.214844 C 1.203125 176.707031 2.9375 180.757812 5.753906 183.855469 C 4.726562 186.117188 4.140625 188.582031 4.140625 191.105469 C 4.140625 198.136719 8.410156 204.40625 14.722656 207.136719 C 14.09375 208.796875 13.753906 210.601562 13.753906 212.40625 C 13.753906 220.804688 20.566406 227.601562 28.960938 227.601562 C 29.34375 227.601562 29.753906 227.511719 30.164062 227.480469 C 32.457031 233.765625 39.253906 238.183594 47.164062 238.183594 C 57 238.183594 65.015625 231.359375 65.015625 222.992188 L 65.015625 208.136719 C 65.015625 208.136719 65.015625 208.136719 65.015625 208.105469 L 65.015625 151.898438 C 65.015625 151.898438 65.015625 151.898438 65.015625 151.882812 L 65.015625 151.871094 L 65 119.019531 C 65 118.722656 64.542969 111.664062 59.640625 108.464844 Z M 60.816406 141.460938 C 58.054688 138.542969 54.152344 136.691406 49.804688 136.691406 C 48.648438 136.691406 47.707031 137.632812 47.707031 138.789062 C 47.707031 139.9375 48.648438 140.890625 49.804688 140.890625 C 55.882812 140.890625 60.816406 145.820312 60.816406 151.898438 L 60.816406 197.710938 C 58.054688 194.792969 54.152344 192.925781 49.804688 192.925781 C 48.648438 192.914062 47.707031 193.851562 47.707031 194.996094 C 47.707031 196.171875 48.648438 197.097656 49.804688 197.097656 C 55.882812 197.097656 60.816406 202.058594 60.816406 208.105469 L 60.816406 222.992188 C 60.816406 229.039062 54.710938 234 47.164062 234 C 40.484375 234 34.804688 230.125 33.703125 224.824219 C 33.453125 223.695312 32.324219 222.992188 31.191406 223.179688 C 31.191406 223.179688 31.179688 223.179688 31.164062 223.179688 C 30.445312 223.355469 29.710938 223.417969 28.960938 223.417969 C 22.886719 223.417969 17.9375 218.484375 17.9375 212.40625 C 17.9375 210.484375 18.453125 208.621094 19.390625 206.960938 C 19.449219 206.871094 19.464844 206.753906 19.492188 206.636719 C 19.507812 206.578125 19.566406 206.550781 19.613281 206.492188 C 19.613281 206.433594 19.613281 206.34375 19.613281 206.257812 C 19.625 206.167969 19.625 206.078125 19.625 205.960938 C 19.625 205.785156 19.625 205.625 19.613281 205.476562 C 19.566406 205.375 19.539062 205.289062 19.492188 205.214844 C 19.433594 205.039062 19.375 204.921875 19.273438 204.789062 C 19.230469 204.683594 19.140625 204.613281 19.066406 204.523438 C 18.949219 204.40625 18.832031 204.320312 18.730469 204.199219 C 18.671875 204.171875 18.65625 204.140625 18.597656 204.113281 C 18.523438 204.054688 18.421875 204.054688 18.320312 204.011719 C 18.261719 203.980469 18.203125 203.953125 18.128906 203.921875 C 12.359375 202.335938 8.351562 197.066406 8.351562 191.105469 C 8.351562 189.640625 8.675781 188.1875 9.144531 186.835938 C 11.890625 188.613281 15.148438 189.699219 18.671875 189.699219 C 19.816406 189.699219 20.769531 188.757812 20.769531 187.597656 C 20.769531 186.425781 19.816406 185.46875 18.671875 185.46875 C 11.332031 185.46875 5.402344 179.523438 5.402344 172.199219 C 5.402344 167.046875 8.410156 162.351562 13.078125 160.164062 L 13.09375 160.164062 C 13.125 160.148438 13.152344 160.121094 13.183594 160.105469 C 14.914062 159.328125 16.761719 158.929688 18.671875 158.929688 C 19.816406 158.929688 20.769531 157.992188 20.769531 156.832031 C 20.769531 155.671875 19.816406 154.761719 18.671875 154.761719 C 16.96875 154.761719 15.355469 155.070312 13.753906 155.539062 C 13.550781 154.601562 13.402344 153.644531 13.402344 152.675781 C 13.402344 145.351562 19.375 139.40625 26.6875 139.40625 C 31.75 139.40625 36.285156 142.210938 38.5625 146.746094 C 39.089844 147.789062 40.339844 148.183594 41.378906 147.671875 C 42.40625 147.15625 42.832031 145.910156 42.304688 144.867188 C 39.324219 138.90625 33.351562 135.207031 26.6875 135.207031 C 26.613281 135.207031 26.554688 135.222656 26.464844 135.222656 C 25.628906 133.652344 25.117188 131.933594 25.117188 130.128906 C 25.117188 124.054688 30.046875 119.121094 36.125 119.121094 C 40.117188 119.121094 43.800781 121.292969 45.753906 124.785156 C 46.636719 126.417969 47.121094 128.265625 47.121094 130.128906 C 47.121094 131.273438 48.074219 132.230469 49.21875 132.230469 C 50.378906 132.230469 51.332031 131.273438 51.332031 130.128906 C 51.332031 127.546875 50.671875 124.992188 49.425781 122.761719 C 47.738281 119.765625 45.167969 117.507812 42.128906 116.183594 C 45.859375 113.601562 50.21875 112.046875 50.304688 112 C 53.285156 110.886719 55.664062 110.871094 57.351562 111.972656 C 60.433594 113.984375 60.816406 119.136719 60.816406 119.136719 Z M 60.816406 141.460938 " fill-opacity="1" fill-rule="nonzero"/></g><path fill="#e44d26" d="M 38.164062 161.925781 C 37.960938 160.808594 36.859375 160.0625 35.714844 160.28125 C 34.570312 160.5 33.851562 161.601562 34.070312 162.730469 C 34.863281 166.945312 37.09375 170.628906 40.265625 173.433594 C 40.191406 173.699219 40.148438 173.960938 40.164062 174.242188 C 40.515625 180.304688 35.890625 185.542969 29.84375 185.910156 C 28.667969 185.96875 27.800781 186.96875 27.859375 188.113281 C 27.933594 189.226562 28.859375 190.09375 29.960938 190.09375 C 29.988281 190.09375 30.035156 190.09375 30.105469 190.09375 C 37.710938 189.640625 43.625 183.589844 44.257812 176.179688 C 46.929688 177.527344 49.835938 178.234375 52.800781 178.234375 C 54.019531 178.234375 55.238281 178.128906 56.425781 177.894531 C 57.542969 177.691406 58.289062 176.589844 58.085938 175.445312 C 57.878906 174.328125 56.734375 173.566406 55.632812 173.785156 C 51.699219 174.550781 47.738281 173.726562 44.464844 171.480469 C 41.144531 169.234375 38.914062 165.84375 38.164062 161.925781 Z M 38.164062 161.925781 " fill-opacity="1" fill-rule="nonzero"/><path fill="#e44d26" d="M 81.425781 206.125 C 80.355469 206.519531 79.8125 207.722656 80.207031 208.824219 C 80.589844 209.910156 81.820312 210.484375 82.90625 210.085938 C 88.589844 207.957031 94.945312 210.867188 97.074219 216.515625 C 97.46875 217.589844 98.671875 218.160156 99.757812 217.765625 C 100.859375 217.367188 101.390625 216.136719 100.976562 215.035156 C 98.070312 207.210938 89.277344 203.203125 81.425781 206.125 Z M 81.425781 206.125 " fill-opacity="1" fill-rule="nonzero"/><g clip-path="url(#df6a2b85f9)"><path fill="#e44d26" d="M 132.390625 172.214844 C 132.390625 165.992188 129.03125 160.28125 123.714844 157.167969 C 124.082031 155.699219 124.363281 154.203125 124.363281 152.675781 C 124.363281 144.648438 118.902344 137.9375 111.519531 135.898438 C 112.25 134.078125 112.664062 132.140625 112.664062 130.144531 C 112.664062 121.761719 105.851562 114.9375 97.46875 114.9375 C 97.191406 114.9375 96.925781 114.980469 96.617188 114.996094 C 92.054688 110.679688 85.007812 108.171875 84.699219 108.066406 C 80.457031 106.46875 76.816406 106.585938 73.9375 108.464844 C 69.050781 111.664062 68.597656 118.722656 68.597656 119.019531 L 68.582031 151.871094 L 68.582031 151.882812 C 68.582031 151.882812 68.582031 151.898438 68.582031 151.898438 L 68.582031 208.105469 C 68.582031 208.136719 68.582031 208.136719 68.582031 208.136719 L 68.582031 222.992188 C 68.582031 231.359375 76.597656 238.183594 86.429688 238.183594 C 94.34375 238.183594 101.140625 233.765625 103.414062 227.480469 C 103.824219 227.511719 104.238281 227.601562 104.617188 227.601562 C 113 227.601562 119.824219 220.804688 119.824219 212.40625 C 119.824219 210.601562 119.488281 208.796875 118.855469 207.136719 C 125.199219 204.40625 129.441406 198.125 129.441406 191.105469 C 129.441406 188.582031 128.882812 186.117188 127.839844 183.855469 C 130.660156 180.757812 132.390625 176.707031 132.390625 172.214844 Z M 115.453125 203.921875 C 115.378906 203.953125 115.335938 203.980469 115.261719 204.011719 C 115.171875 204.054688 115.054688 204.054688 114.980469 204.113281 C 114.921875 204.140625 114.910156 204.171875 114.851562 204.199219 C 114.730469 204.320312 114.628906 204.40625 114.527344 204.523438 C 114.4375 204.613281 114.351562 204.683594 114.308594 204.773438 C 114.203125 204.921875 114.160156 205.039062 114.085938 205.214844 C 114.058594 205.289062 114.011719 205.375 113.984375 205.492188 C 113.953125 205.640625 113.953125 205.800781 113.953125 205.976562 C 113.953125 206.09375 113.953125 206.183594 113.984375 206.269531 C 113.984375 206.359375 113.953125 206.445312 113.984375 206.503906 C 114.011719 206.5625 114.070312 206.59375 114.085938 206.652344 C 114.144531 206.753906 114.144531 206.871094 114.203125 206.960938 C 115.128906 208.621094 115.65625 210.484375 115.65625 212.40625 C 115.65625 218.484375 110.679688 223.417969 104.617188 223.417969 C 103.871094 223.417969 103.136719 223.355469 102.417969 223.179688 L 102.386719 223.179688 C 101.273438 222.976562 100.140625 223.695312 99.890625 224.8125 C 98.789062 230.125 93.109375 234 86.429688 234 C 78.871094 234 72.765625 229.039062 72.765625 222.992188 L 72.765625 208.105469 C 72.765625 202.058594 77.710938 197.097656 83.773438 197.097656 C 84.933594 197.097656 85.886719 196.171875 85.886719 194.996094 C 85.886719 193.851562 84.949219 192.898438 83.773438 192.898438 C 79.429688 192.898438 75.523438 194.761719 72.765625 197.683594 L 72.765625 151.882812 C 72.765625 145.808594 77.710938 140.875 83.773438 140.875 C 84.933594 140.875 85.886719 139.9375 85.886719 138.777344 C 85.886719 137.617188 84.949219 136.664062 83.773438 136.664062 C 79.429688 136.664062 75.523438 138.511719 72.765625 141.433594 L 72.765625 119.136719 C 72.765625 119.136719 73.132812 113.984375 76.257812 111.972656 C 77.917969 110.871094 80.308594 110.886719 83.289062 112 C 83.378906 112.046875 87.738281 113.601562 91.464844 116.183594 C 88.425781 117.507812 85.828125 119.765625 84.171875 122.761719 C 82.9375 125.007812 82.277344 127.5625 82.277344 130.128906 C 82.277344 131.273438 83.203125 132.230469 84.375 132.230469 C 85.535156 132.230469 86.476562 131.273438 86.476562 130.128906 C 86.476562 128.265625 86.945312 126.417969 87.855469 124.785156 C 89.777344 121.308594 93.460938 119.136719 97.46875 119.136719 C 103.53125 119.136719 108.480469 124.066406 108.480469 130.144531 C 108.480469 131.949219 107.949219 133.667969 107.128906 135.238281 C 107.039062 135.238281 106.96875 135.222656 106.894531 135.222656 C 100.230469 135.222656 94.253906 138.90625 91.273438 144.882812 C 90.761719 145.910156 91.171875 147.15625 92.214844 147.671875 C 93.242188 148.183594 94.488281 147.773438 95.019531 146.746094 C 97.277344 142.210938 101.828125 139.40625 106.894531 139.40625 C 114.203125 139.40625 120.179688 145.351562 120.179688 152.675781 C 120.179688 153.644531 120.015625 154.601562 119.824219 155.539062 C 118.253906 155.070312 116.640625 154.761719 114.910156 154.761719 C 113.761719 154.761719 112.792969 155.6875 112.792969 156.847656 C 112.792969 158.003906 113.761719 158.945312 114.910156 158.945312 C 116.832031 158.945312 118.667969 159.339844 120.382812 160.121094 C 120.429688 160.132812 120.457031 160.164062 120.488281 160.179688 L 120.515625 160.179688 C 125.183594 162.351562 128.179688 167.0625 128.179688 172.214844 C 128.179688 179.539062 122.234375 185.484375 114.910156 185.484375 C 113.761719 185.484375 112.792969 186.425781 112.792969 187.613281 C 112.792969 188.757812 113.75 189.710938 114.910156 189.710938 C 118.429688 189.710938 121.691406 188.625 124.421875 186.851562 C 124.917969 188.171875 125.226562 189.640625 125.226562 191.105469 C 125.226562 197.066406 121.21875 202.335938 115.453125 203.921875 Z M 115.453125 203.921875 " fill-opacity="1" fill-rule="nonzero"/></g><path fill="#e44d26" d="M 103.765625 185.910156 C 97.703125 185.542969 93.082031 180.304688 93.417969 174.242188 C 93.449219 173.960938 93.402344 173.699219 93.316406 173.433594 C 96.5 170.644531 98.71875 166.960938 99.523438 162.730469 C 99.757812 161.601562 99.027344 160.5 97.878906 160.28125 C 96.722656 160.0625 95.621094 160.808594 95.414062 161.925781 C 94.652344 165.84375 92.421875 169.234375 89.132812 171.480469 C 85.828125 173.726562 81.867188 174.550781 77.960938 173.785156 C 76.859375 173.566406 75.699219 174.328125 75.496094 175.445312 C 75.289062 176.589844 76.039062 177.691406 77.183594 177.910156 C 78.386719 178.128906 79.589844 178.25 80.792969 178.25 C 83.757812 178.25 86.679688 177.542969 89.335938 176.191406 C 89.96875 183.589844 95.871094 189.652344 103.503906 190.109375 C 103.5625 190.109375 103.589844 190.109375 103.621094 190.109375 C 104.734375 190.109375 105.660156 189.242188 105.734375 188.128906 C 105.777344 186.96875 104.925781 185.96875 103.765625 185.910156 Z M 103.765625 185.910156 " fill-opacity="1" fill-rule="nonzero"/><g fill="#000000" fill-opacity="1"><g transform="translate(177.142973, 253.685213)"><g><path d="M 19.953125 0 L 19.953125 -166.21875 L 52 -166.21875 L 125.375 -65.0625 L 125.375 -166.21875 L 162.890625 -166.21875 L 162.890625 0 L 130.84375 0 L 57.46875 -101.875 L 57.46875 0 Z M 19.953125 0 "/></g></g></g><g fill="#000000" fill-opacity="1"><g transform="translate(348.107008, 253.685213)"><g><path d="M 76.9375 3.328125 C 63.632812 3.328125 51.878906 0.554688 41.671875 -4.984375 C 31.460938 -10.523438 23.507812 -18.242188 17.8125 -28.140625 C 12.113281 -38.035156 9.265625 -49.472656 9.265625 -62.453125 C 9.265625 -75.429688 12.148438 -86.828125 17.921875 -96.640625 C 23.703125 -106.453125 31.695312 -114.128906 41.90625 -119.671875 C 52.113281 -125.210938 63.945312 -127.984375 77.40625 -127.984375 C 91.65625 -127.984375 103.960938 -124.816406 114.328125 -118.484375 C 124.703125 -112.148438 132.617188 -103.285156 138.078125 -91.890625 C 143.535156 -80.492188 145.867188 -67.195312 145.078125 -52 L 45.109375 -52 C 46.859375 -43.457031 50.660156 -36.925781 56.515625 -32.40625 C 62.367188 -27.894531 69.410156 -25.640625 77.640625 -25.640625 C 83.660156 -25.640625 89.160156 -26.785156 94.140625 -29.078125 C 99.128906 -31.378906 103.128906 -34.585938 106.140625 -38.703125 L 142.703125 -38.703125 C 137.328125 -25.566406 128.859375 -15.273438 117.296875 -7.828125 C 105.742188 -0.390625 92.289062 3.328125 76.9375 3.328125 Z M 45.359375 -74.796875 L 110.171875 -74.796875 C 108.117188 -82.398438 104.28125 -88.375 98.65625 -92.71875 C 93.039062 -97.070312 86.035156 -99.25 77.640625 -99.25 C 69.734375 -99.25 62.890625 -97.070312 57.109375 -92.71875 C 51.328125 -88.375 47.410156 -82.398438 45.359375 -74.796875 Z M 45.359375 -74.796875 "/></g></g></g><g fill="#000000" fill-opacity="1"><g transform="translate(490.339583, 253.685213)"><g><path d="M 67.671875 3.328125 C 51.523438 3.328125 38.820312 -1.773438 29.5625 -11.984375 C 20.300781 -22.203125 15.671875 -35.9375 15.671875 -53.1875 L 15.671875 -124.65625 L 51.765625 -124.65625 L 51.765625 -56.75 C 51.765625 -47.570312 53.941406 -40.445312 58.296875 -35.375 C 62.648438 -30.3125 68.625 -27.78125 76.21875 -27.78125 C 84.445312 -27.78125 91.015625 -30.628906 95.921875 -36.328125 C 100.835938 -42.023438 103.296875 -49.78125 103.296875 -59.59375 L 103.296875 -124.65625 L 139.390625 -124.65625 L 139.390625 0 L 112.546875 0 L 108.75 -14.015625 C 103.84375 -8.148438 97.828125 -3.789062 90.703125 -0.9375 C 83.578125 1.90625 75.898438 3.328125 67.671875 3.328125 Z M 67.671875 3.328125 "/></g></g></g><g fill="#000000" fill-opacity="1"><g transform="translate(635.896489, 253.685213)"><g><path d="M 18.046875 0 L 18.046875 -124.65625 L 44.875 -124.65625 L 49.625 -108.046875 C 53.738281 -113.898438 58.800781 -118.128906 64.8125 -120.734375 C 70.832031 -123.347656 78.4375 -124.65625 87.625 -124.65625 L 101.15625 -124.65625 L 101.15625 -91.890625 L 87.375 -91.890625 C 77.09375 -91.890625 68.984375 -89.117188 63.046875 -83.578125 C 57.109375 -78.035156 54.140625 -68.539062 54.140625 -55.09375 L 54.140625 0 Z M 18.046875 0 "/></g></g></g><g fill="#000000" fill-opacity="1"><g transform="translate(733.251003, 253.685213)"><g><path d="M 79.3125 3.328125 C 65.539062 3.328125 53.390625 0.554688 42.859375 -4.984375 C 32.328125 -10.523438 24.09375 -18.242188 18.15625 -28.140625 C 12.226562 -38.035156 9.265625 -49.472656 9.265625 -62.453125 C 9.265625 -75.429688 12.226562 -86.828125 18.15625 -96.640625 C 24.09375 -106.453125 32.328125 -114.128906 42.859375 -119.671875 C 53.390625 -125.210938 65.539062 -127.984375 79.3125 -127.984375 C 93.082031 -127.984375 105.226562 -125.210938 115.75 -119.671875 C 126.28125 -114.128906 134.472656 -106.453125 140.328125 -96.640625 C 146.191406 -86.828125 149.125 -75.429688 149.125 -62.453125 C 149.125 -49.472656 146.191406 -38.035156 140.328125 -28.140625 C 134.472656 -18.242188 126.28125 -10.523438 115.75 -4.984375 C 105.226562 0.554688 93.082031 3.328125 79.3125 3.328125 Z M 44.875 -62.453125 C 44.875 -52.316406 48.078125 -44.003906 54.484375 -37.515625 C 60.898438 -31.023438 69.175781 -27.78125 79.3125 -27.78125 C 89.4375 -27.78125 97.664062 -31.023438 104 -37.515625 C 110.332031 -44.003906 113.5 -52.316406 113.5 -62.453125 C 113.5 -72.742188 110.332031 -81.09375 104 -87.5 C 97.664062 -93.914062 89.4375 -97.125 79.3125 -97.125 C 69.175781 -97.125 60.898438 -93.914062 54.484375 -87.5 C 48.078125 -81.09375 44.875 -72.742188 44.875 -62.453125 Z M 44.875 -62.453125 "/></g></g></g><g fill="#000000" fill-opacity="1"><g transform="translate(879.757701, 253.685213)"><g><path d="M 30.390625 -134.640625 C 30.390625 -149.359375 34.382812 -160.632812 42.375 -168.46875 C 50.375 -176.3125 61.816406 -180.234375 76.703125 -180.234375 L 104.234375 -180.234375 L 104.234375 -151.734375 L 84.53125 -151.734375 C 78.039062 -151.734375 73.289062 -150.1875 70.28125 -147.09375 C 67.28125 -144.007812 65.78125 -139.222656 65.78125 -132.734375 L 65.78125 -124.65625 L 103.0625 -124.65625 L 103.0625 -95.21875 L 66.484375 -95.21875 L 66.484375 0 L 30.390625 0 L 30.390625 -95.21875 L 5.46875 -95.21875 L 5.46875 -124.65625 L 30.390625 -124.65625 Z M 30.390625 -134.640625 "/></g></g></g><g fill="#000000" fill-opacity="1"><g transform="translate(974.50028, 253.685213)"><g><path d="M 18.046875 0 L 18.046875 -175.71875 L 54.140625 -175.71875 L 54.140625 0 Z M 18.046875 0 "/></g></g></g><g fill="#000000" fill-opacity="1"><g transform="translate(1034.812615, 253.685213)"><g><path d="M 79.3125 3.328125 C 65.539062 3.328125 53.390625 0.554688 42.859375 -4.984375 C 32.328125 -10.523438 24.09375 -18.242188 18.15625 -28.140625 C 12.226562 -38.035156 9.265625 -49.472656 9.265625 -62.453125 C 9.265625 -75.429688 12.226562 -86.828125 18.15625 -96.640625 C 24.09375 -106.453125 32.328125 -114.128906 42.859375 -119.671875 C 53.390625 -125.210938 65.539062 -127.984375 79.3125 -127.984375 C 93.082031 -127.984375 105.226562 -125.210938 115.75 -119.671875 C 126.28125 -114.128906 134.472656 -106.453125 140.328125 -96.640625 C 146.191406 -86.828125 149.125 -75.429688 149.125 -62.453125 C 149.125 -49.472656 146.191406 -38.035156 140.328125 -28.140625 C 134.472656 -18.242188 126.28125 -10.523438 115.75 -4.984375 C 105.226562 0.554688 93.082031 3.328125 79.3125 3.328125 Z M 44.875 -62.453125 C 44.875 -52.316406 48.078125 -44.003906 54.484375 -37.515625 C 60.898438 -31.023438 69.175781 -27.78125 79.3125 -27.78125 C 89.4375 -27.78125 97.664062 -31.023438 104 -37.515625 C 110.332031 -44.003906 113.5 -52.316406 113.5 -62.453125 C 113.5 -72.742188 110.332031 -81.09375 104 -87.5 C 97.664062 -93.914062 89.4375 -97.125 79.3125 -97.125 C 69.175781 -97.125 60.898438 -93.914062 54.484375 -87.5 C 48.078125 -81.09375 44.875 -72.742188 44.875 -62.453125 Z M 44.875 -62.453125 "/></g></g></g><g fill="#000000" fill-opacity="1"><g transform="translate(1181.319312, 253.685213)"><g><path d="M 48.203125 0 L 2.140625 -124.65625 L 40.359375 -124.65625 L 54.859375 -83.34375 L 67.203125 -48.4375 L 80.015625 -83.34375 L 95.453125 -124.65625 L 124.65625 -124.65625 L 140.09375 -83.34375 L 152.921875 -48.203125 L 165.265625 -83.34375 L 179.984375 -124.65625 L 217.984375 -124.65625 L 171.921875 0 L 138.4375 0 L 110.171875 -75.984375 L 81.6875 0 Z M 48.203125 0 "/></g></g></g></g></g></svg>